<svg xmlns="http://www.w3.org/2000/svg" width="166" height="56" fill="none" xmlns:v="https://vecta.io/nano"><g fill-rule="evenodd"><path d="M140.321 34.508V20.15h8.195v1.72H142.2v4.268h5.619v1.678H142.2v4.972h6.801v1.72h-8.68zm-10.849-1.989l-.513-1.264-.688-1.657-.785-1.834-.784-1.782-.688-1.502-.514-1.015-.348 5.293-.233 5.749h-1.84l.174-3.76.223-3.729.271-3.574.32-3.294h1.647l1.123 2.155 1.201 2.6 1.163 2.714 1.027 2.476 1.026-2.476 1.163-2.714 1.201-2.6 1.124-2.155h1.646c.44 4.627.769 9.413.988 14.358h-1.84l-.233-5.749a134.68 134.68 0 0 0-.348-5.293c-.129.235-.301.573-.514 1.015a46.05 46.05 0 0 0-.687 1.502l-.785 1.782-.785 1.834-.687 1.657-.514 1.264h-1.511zm-11.663-3.336l-1.23-3.491a64.66 64.66 0 0 0-1.269-3.242 53.48 53.48 0 0 0-1.288 3.242l-1.211 3.491h4.998zm1.763 5.325l-.62-1.834-.6-1.834h-6.084l-1.22 3.667h-1.957l1.453-4.216 1.327-3.678 1.288-3.325a90.09 90.09 0 0 1 1.337-3.139h1.724c.465 1.036.911 2.082 1.337 3.139l1.289 3.325 1.327 3.678 1.453 4.216h-2.054zm-17.979-12.742c-.8 0-1.414.021-1.84.062v5.407h1.337c.645 0 1.227-.034 1.743-.104s.953-.2 1.308-.394a2.02 2.02 0 0 0 .823-.818c.194-.352.291-.818.291-1.398 0-.539-.097-.988-.291-1.347a2.23 2.23 0 0 0-.784-.849c-.33-.207-.717-.352-1.163-.435s-.92-.124-1.424-.124h0zm2.848 6.734a49.87 49.87 0 0 1 .785 1.088c.316.449.642.946.978 1.492s.669 1.115.998 1.709a17.98 17.98 0 0 1 .843 1.72h-2.054c-.258-.525-.539-1.057-.843-1.595a34.95 34.95 0 0 0-.92-1.544c-.31-.49-.617-.95-.92-1.378s-.578-.801-.823-1.119c-.168.014-.339.021-.514.021h-.533-1.685v5.615h-1.879V20.357c.53-.138 1.121-.231 1.773-.28a24.43 24.43 0 0 1 1.792-.072c1.886 0 3.323.38 4.311 1.139s1.482 1.892 1.482 3.398c0 .953-.236 1.768-.707 2.445s-1.166 1.181-2.083 1.513h0zM87.47 34.508V20.15h8.098v1.72h-6.219v4.33h5.522v1.699h-5.522v6.609H87.47zm-1.976-1.74v1.74h-8.079V20.15h1.879v12.617h6.2zm-10.055 0v1.74H67.36V20.15h1.879v12.617h6.2zm-19.141 1.74V20.15h8.195v1.72h-6.316v4.268h5.618v1.678h-5.618v4.972h6.8v1.72h-8.679zm-6.238.311c-.943 0-1.802-.166-2.577-.497a5.48 5.48 0 0 1-1.995-1.45c-.555-.635-.985-1.419-1.288-2.352s-.455-1.999-.455-3.201.171-2.269.513-3.201.804-1.716 1.385-2.352 1.259-1.119 2.034-1.45 1.602-.497 2.48-.497a8.25 8.25 0 0 1 1.502.124 8.68 8.68 0 0 1 1.162.29c.329.11.597.221.804.331s.349.193.426.249l-.542 1.658c-.116-.083-.284-.173-.504-.269s-.468-.193-.746-.29-.581-.176-.911-.238a5.37 5.37 0 0 0-.998-.093c-.71 0-1.35.131-1.918.394s-1.053.642-1.453 1.14-.707 1.101-.92 1.813-.32 1.509-.32 2.393c0 .856.094 1.637.281 2.341s.468 1.309.843 1.813.843.894 1.405 1.171 1.217.414 1.966.414c.865 0 1.582-.097 2.151-.29s.995-.366 1.279-.518l.484 1.657c-.09.069-.252.155-.484.259s-.523.204-.872.3a10.26 10.26 0 0 1-1.221.249c-.465.069-.969.104-1.511.104z" fill="#fff"/><path d="M7.841 15.697h0a1.35 1.35 0 0 1-1.352-1.349c0-.079.007-.155.02-.23A1.35 1.35 0 0 1 7.841 13h0 0a1.35 1.35 0 0 1 1.311 1.678 1.35 1.35 0 0 1-1.311 1.02h0zm11.086-.809a1.35 1.35 0 0 1 2.704 0 1.35 1.35 0 0 1-2.704 0zm5.047.719l.002-.06a1.17 1.17 0 0 1 1.17-1.109 1.17 1.17 0 0 1 1.172 1.169c0 .323-.131.615-.343.826a1.17 1.17 0 0 1-2-.826zm-8.202 1.528h0a1.53 1.53 0 0 1-1.516-1.305c-.011-.073-.016-.147-.016-.223a1.53 1.53 0 0 1 1.532-1.528h0 0c.698 0 1.286.465 1.471 1.101.04.136.061.279.061.428a1.53 1.53 0 0 1-1.532 1.528h0zm13.339 2.158h0a.99.99 0 0 1-.974-.802c-.012-.061-.018-.123-.018-.187a.99.99 0 0 1 .991-.989h0 0a.99.99 0 0 1 .991.989.99.99 0 0 1-.991.989h0zm-24.243.177a1.53 1.53 0 0 1-1.444-1.526 1.53 1.53 0 1 1 3.064 0 1.53 1.53 0 0 1-1.621 1.526h0zm6.398.182h0a1.71 1.71 0 0 1-1.712-1.708c0-.107.01-.211.029-.313a1.71 1.71 0 0 1 1.684-1.395h0 0a1.71 1.71 0 0 1 1.713 1.708 1.71 1.71 0 0 1-1.713 1.708h0zm19.919 2.428a.81.81 0 1 1 1.622 0 .81.81 0 1 1-1.622 0zm-16.743 1.707a1.53 1.53 0 0 1-1.463-1.527 1.53 1.53 0 1 1 3.064 0 1.53 1.53 0 0 1-1.463 1.527l-.069.002c-.023 0-.046-.001-.069-.002zm-11.468.181h0a1.71 1.71 0 0 1-1.712-1.708 1.71 1.71 0 0 1 1.712-1.708h0 0a1.71 1.71 0 0 1 1.712 1.708 1.71 1.71 0 0 1-1.712 1.708h0zm3.876-1.888a1.89 1.89 0 1 1 3.785 0 1.89 1.89 0 1 1-3.785 0zm9.373 4.855a1.53 1.53 0 1 1 3.064 0 1.53 1.53 0 1 1-3.064 0zm-5.046.066l-.001-.066a1.71 1.71 0 1 1 3.425 0l-.001.066a1.71 1.71 0 0 1-1.711 1.642 1.71 1.71 0 0 1-1.711-1.642zM0 27.116a1.89 1.89 0 0 1 1.893-1.888 1.89 1.89 0 0 1 1.893 1.888 1.89 1.89 0 0 1-1.893 1.888A1.89 1.89 0 0 1 0 27.116zm5.408 0a2.07 2.07 0 1 1 4.146 0 2.07 2.07 0 1 1-4.146 0zm8.675 5.963a1.53 1.53 0 0 1-1.104-1.468h0 0a1.53 1.53 0 0 1 1.308-1.512 1.56 1.56 0 0 1 .448 0 1.53 1.53 0 0 1 1.308 1.512h0 0a1.53 1.53 0 0 1-1.104 1.468c-.136.039-.28.061-.429.061s-.293-.021-.428-.061zm-11.108.6h0a1.71 1.71 0 0 1-1.712-1.708 1.71 1.71 0 0 1 1.712-1.708h0 0a1.71 1.71 0 0 1 1.712 1.708 1.71 1.71 0 0 1-1.712 1.708h0zm28.211-.629a.81.81 0 1 1 1.622 0 .81.81 0 1 1-1.622 0zM6.85 32.151a1.89 1.89 0 1 1 3.785 0 1.89 1.89 0 1 1-3.785 0zm22.262 5.664h0a.99.99 0 0 1-.974-.802c-.012-.061-.018-.123-.018-.187a.99.99 0 0 1 .991-.989h0 0a.99.99 0 0 1 .991.989.99.99 0 0 1-.991.989h0zm-24.243.177a1.53 1.53 0 0 1-1.444-1.526 1.53 1.53 0 1 1 3.064 0 1.53 1.53 0 0 1-1.621 1.526h0zm6.398.542h0a1.71 1.71 0 0 1-1.712-1.708c0-.107.01-.211.029-.313a1.71 1.71 0 0 1 1.684-1.395h0 0a1.71 1.71 0 0 1 1.713 1.708 1.71 1.71 0 0 1-1.713 1.708h0zm12.708.809l.002-.06a1.17 1.17 0 0 1 1.17-1.109 1.17 1.17 0 0 1 1.172 1.169 1.17 1.17 0 0 1-1.126 1.168l-.045.001a1.17 1.17 0 0 1-1.172-1.169h0zm-8.202 1.708h0a1.53 1.53 0 0 1-1.516-1.305c-.011-.073-.016-.147-.016-.223a1.53 1.53 0 0 1 1.532-1.528h0 0c.698 0 1.286.465 1.471 1.101.04.136.061.279.061.428a1.53 1.53 0 0 1-1.532 1.529h0zm3.154-.809a1.35 1.35 0 0 1 2.704 0 1.35 1.35 0 0 1-2.704 0zM7.841 41.951h0a1.35 1.35 0 0 1-1.352-1.349c0-.078.007-.155.02-.23a1.35 1.35 0 0 1 1.332-1.118h0 0a1.35 1.35 0 0 1 1.311 1.678 1.35 1.35 0 0 1-1.311 1.02h0z" fill="url(#A)"/></g><defs><linearGradient id="A" x1="15.082" y1="56.426" x2="44.111" y2="26.181" gradientUnits="userSpaceOnUse"><stop stop-color="#964bff"/><stop offset=".37" stop-color="#a695ff"/><stop offset=".65" stop-color="#3ce9ff"/><stop offset=".86" stop-color="#caff2c"/><stop offset="1" stop-color="#ffff21"/></linearGradient></defs></svg>